#N canvas 269 47 1392 867 12;
#X obj 164 41 bng 30 250 50 0 go empty Go -22 7 0 10 -204786 -1 -1
;
#X obj 164 74 tgl 15 0 empty empty empty 17 7 0 10 -262144 -1 -1 0
1;
#X obj 125 112 spigot;
#X floatatom 175 94 5 0 0 1 bpm - -, f 5;
#X obj 158 327 bng 15 250 50 0 empty empty empty 17 7 0 10 -262144
-1 -1;
#X obj 9 741 loadbang;
#N canvas 798 113 632 468 copyrightInfo 0;
#X text 43 19 This program creates generative music on an Elektron
Digitone. Copyright (C) 2019 Jerry Z. Raski This program is free software:
you can redistribute it and/or modify it under the terms of the GNU
General Public License as published by the Free Software Foundation
\, either version 3 of the License \, or (at your option) any later
version. This program is distributed in the hope that it will be useful
\, but WITHOUT ANY WARRANTY \; without even the implied warranty of
MERCHANTABILITY or FITNESS FOR A PARTICULAR PURPOSE. See the GNU General
Public License for more details. You should have received a copy of
the GNU General Public License along with this program. If not \, see
<https://www.gnu.org/licenses/>.;
#X text 74 306 j.raski@gmail.com;
#X restore 73 781 pd copyrightInfo;
#X obj 9 781 print -n;
#X obj 15 711 array set scaleC;
#X msg 69 692 0;
#X obj 15 653 loadbang;
#X obj 197 408 tabread scaleC;
#X obj 147 593 loadbang;
#X obj 281 56 r notesLambda;
#X obj 158 347 f 0;
#X obj 158 366 + 1;
#X msg 9 761 oneOverfTester Copyright (C) 2019 Jerry Z Raski;
#X text 160 693 16 possible tones;
#X obj 140 711 array define -k scaleC 16;
#A 0 0 3 5 7 10 12 15 17 19 22 0 3 5 7 10 12;
#X obj 142 733 text define -k diceRoll;
#A set threeRoll bang \; oneRoll bang \; twoRoll bang \; oneRoll bang
\; threeRoll bang \; oneRoll bang \; twoRoll bang \; oneRoll bang \;
;
#X obj 197 510 makenote 80 2000;
#X floatatom 329 525 5 0 0 0 - - -, f 5;
#X floatatom 377 524 5 0 0 0 - - -, f 5;
#X obj 175 112 s bpm;
#X obj 324 387 r bpm;
#X floatatom 324 428 5 0 0 0 - - -, f 5;
#X obj 306 489 *;
#X floatatom 366 129 7 0 0 0 - - -, f 7;
#X obj 251 469 * 3;
#X obj 251 489 + 79;
#X obj 200 238 random 8;
#X obj 199 181 random 9;
#X obj 199 200 + 8;
#X obj 199 219 t b f;
#X obj 243 258 random 8;
#X text 381 768 G239 short bass;
#X text 374 781 G247 Wobble keys;
#X text 360 755 G232 Milky way pad;
#X text 81 548 C004 Die Dim Arp;
#X text 402 704 D083 Chipper;
#X text 367 742 D022 Metalic Wave;
#X obj 197 549 noteout 3;
#X floatatom 100 409 0 0 128 1 value - -;
#X obj 65 74 midiClockOut;
#X obj 100 449 ctlout 15 3;
#X text 416 692 D081 LPG 3;
#X obj 580 335 bng 15 250 50 0 empty empty empty 17 7 0 10 -262144
-1 -1;
#X obj 619 416 tabread scaleC;
#X obj 703 61 r notesLambda;
#X obj 580 355 f 0;
#X obj 580 374 + 1;
#X obj 619 518 makenote 80 2000;
#X floatatom 751 533 5 0 0 0 - - -, f 5;
#X floatatom 799 532 5 0 0 0 - - -, f 5;
#X obj 746 395 r bpm;
#X floatatom 746 436 5 0 0 0 - - -, f 5;
#X obj 728 497 *;
#X floatatom 788 137 7 0 0 0 - - -, f 7;
#X obj 673 477 * 3;
#X obj 673 497 + 79;
#X obj 622 246 random 8;
#X obj 622 188 random 9;
#X obj 622 207 + 8;
#X obj 622 226 t b f;
#X obj 665 266 random 8;
#X text 783 436 1/32 note in ms;
#X floatatom 522 417 0 0 128 1 value - -;
#X obj 100 389 tabread Port3;
#X obj 197 389 tabread Notes3;
#X obj 251 449 tabread Accent3;
#X obj 306 469 tabread Length3;
#X obj 703 157 voss3Dice Notes1;
#X obj 522 397 tabread Port1;
#X obj 619 396 tabread Notes1;
#X obj 728 477 tabread Length1;
#X obj 673 457 tabread Accent1;
#X obj 158 278 eSeq note3;
#X obj 281 75 expDist note3;
#X obj 580 287 eSeq note1;
#X obj 703 82 expDist note1;
#X text 381 730 D067 Magic Dust;
#X obj 105 147 spigot;
#X obj 746 415 expr (60000/$f1)/8;
#X text 395 680 D085 LPG Zeus;
#X floatatom 594 486 5 0 0 0 - - -, f 5;
#X obj 944 486 quantizer~ aa;
#X obj 926 507 f;
#X obj 926 334 bng 15 250 50 0 empty empty empty 17 7 0 10 -262144
-1 -1;
#X obj 955 507 f;
#X obj 984 507 f;
#X obj 1014 507 f;
#X obj 926 526 makenote 80 2000;
#X obj 955 568 makenote 80 2000;
#X obj 984 609 makenote 80 2000;
#X obj 1014 648 makenote 80 2000;
#X obj 955 588 noteout 4;
#X obj 984 628 noteout 4;
#X obj 1014 669 noteout 4;
#X obj 1206 47 quantizer aa;
#X obj 1041 79 expDist note4;
#X obj 1041 60 r notesLambda;
#X obj 1089 424 f 0;
#X obj 1089 443 + 1;
#X obj 1126 443 mod 8;
#X obj 968 245 random 8;
#X obj 968 187 random 9;
#X obj 968 205 + 8;
#X obj 968 225 t b f;
#X obj 1011 265 random 8;
#X obj 926 285 eSeq note4;
#X obj 1091 483 * 3;
#X obj 1091 503 + 79;
#X obj 1091 463 tabread Accent4;
#X floatatom 1101 528 5 0 0 0 - - -, f 5;
#X obj 1178 518 r bpm;
#X floatatom 1178 559 5 0 0 0 - - -, f 5;
#X obj 1160 579 tabread Length4;
#X obj 1160 601 *;
#X text 875 629 D005 Alien Orgn;
#X obj 85 234 spigot;
#X floatatom 1170 628 5 0 0 0 - - -, f 5;
#X text 482 558 D015 Mars footprint;
#X msg 944 466 0;
#X text 129 656 minor pentatonic scale;
#X obj 197 427 + 53;
#X obj 324 407 expr (60000/$f1)/8;
#X text 362 428 1/32 note in ms;
#X obj 522 436 * 3;
#X obj 926 547 noteout 4;
#X floatatom 1128 134 8 0 0 0 - - -, f 8;
#X obj 124 215 tgl 15 0 empty empty empty 17 7 0 10 -262144 -1 -1 0
1;
#X obj 1178 538 expr (60000/$f1)/1;
#X text 1218 558 1/4 note in ms;
#X obj 195 366 mod 5;
#X obj 617 374 mod 5;
#X obj 512 241 spigot;
#X obj 551 224 tgl 15 0 empty empty empty 17 7 0 10 -262144 -1 -1 0
1;
#X msg 15 673 0 3 5 7 10 12 15 17 19 22 0 3 5 7 10 12;
#X obj 522 457 ctlout 15 1;
#X obj 619 557 noteout 1;
#X obj 619 435 + 41;
#X text 657 375 first five;
#X text 235 367 first five;
#X obj 100 428 * 3;
#X text 353 717 D072 metallic drone;
#X text 318 668 Various other DN patches;
#X msg 147 613 \; notesLambda 0.1 \;;
#X text 1225 280 F minor 7th chord;
#X obj 281 149 voss3Dice Notes3;
#X obj 282 171 voss3Dice Accent3;
#X obj 283 193 voss3Dice Length3;
#X obj 284 214 voss3Dice Port3;
#X obj 704 179 voss3Dice Accent1;
#X obj 705 201 voss3Dice Length1;
#X obj 706 222 voss3Dice Port1;
#X obj 1041 154 voss3Dice Accent4;
#X obj 1041 175 voss3Dice Length4;
#X connect 0 0 1 0;
#X connect 1 0 2 1;
#X connect 1 0 81 1;
#X connect 2 0 109 0;
#X connect 3 0 23 0;
#X connect 4 0 14 0;
#X connect 5 0 16 0;
#X connect 9 0 8 1;
#X connect 10 0 137 0;
#X connect 10 0 9 0;
#X connect 11 0 124 0;
#X connect 12 0 146 0;
#X connect 13 0 77 0;
#X connect 14 0 15 0;
#X connect 14 0 67 0;
#X connect 14 0 68 0;
#X connect 14 0 69 0;
#X connect 14 0 70 0;
#X connect 15 0 133 0;
#X connect 16 0 7 0;
#X connect 20 0 41 0;
#X connect 20 1 41 1;
#X connect 24 0 125 0;
#X connect 25 0 26 1;
#X connect 26 0 20 2;
#X connect 26 0 22 0;
#X connect 28 0 29 0;
#X connect 29 0 20 1;
#X connect 29 0 21 0;
#X connect 30 0 76 1;
#X connect 31 0 32 0;
#X connect 32 0 33 0;
#X connect 33 0 30 0;
#X connect 33 0 34 0;
#X connect 33 1 34 1;
#X connect 33 1 30 1;
#X connect 33 1 76 3;
#X connect 34 0 76 2;
#X connect 42 0 143 0;
#X connect 43 1 119 0;
#X connect 43 1 135 0;
#X connect 43 2 81 0;
#X connect 43 3 2 0;
#X connect 43 4 3 0;
#X connect 46 0 49 0;
#X connect 47 0 140 0;
#X connect 48 0 79 0;
#X connect 49 0 50 0;
#X connect 49 0 72 0;
#X connect 49 0 73 0;
#X connect 49 0 74 0;
#X connect 49 0 75 0;
#X connect 50 0 134 0;
#X connect 51 0 139 0;
#X connect 51 1 139 1;
#X connect 54 0 82 0;
#X connect 55 0 56 1;
#X connect 56 0 51 2;
#X connect 56 0 53 0;
#X connect 58 0 59 0;
#X connect 59 0 51 1;
#X connect 59 0 52 0;
#X connect 60 0 78 1;
#X connect 61 0 62 0;
#X connect 62 0 63 0;
#X connect 63 0 60 0;
#X connect 63 0 64 0;
#X connect 63 1 64 1;
#X connect 63 1 60 1;
#X connect 63 1 78 3;
#X connect 64 0 78 2;
#X connect 66 0 127 0;
#X connect 67 0 42 0;
#X connect 68 0 11 0;
#X connect 69 0 28 0;
#X connect 70 0 26 0;
#X connect 72 0 66 0;
#X connect 73 0 47 0;
#X connect 74 0 56 0;
#X connect 75 0 58 0;
#X connect 76 0 4 0;
#X connect 77 0 31 0;
#X connect 77 0 148 0;
#X connect 77 0 149 0;
#X connect 77 0 150 0;
#X connect 77 0 151 0;
#X connect 77 1 27 0;
#X connect 78 0 46 0;
#X connect 79 0 61 0;
#X connect 79 0 71 0;
#X connect 79 0 152 0;
#X connect 79 0 153 0;
#X connect 79 0 154 0;
#X connect 79 1 57 0;
#X connect 81 0 76 0;
#X connect 81 0 78 0;
#X connect 82 0 55 0;
#X connect 85 0 86 1;
#X connect 85 1 88 1;
#X connect 85 2 89 1;
#X connect 85 3 90 1;
#X connect 86 0 91 0;
#X connect 87 0 101 0;
#X connect 87 0 86 0;
#X connect 87 0 88 0;
#X connect 87 0 89 0;
#X connect 87 0 90 0;
#X connect 87 0 122 0;
#X connect 88 0 92 0;
#X connect 89 0 93 0;
#X connect 90 0 94 0;
#X connect 91 0 128 0;
#X connect 91 1 128 1;
#X connect 92 0 95 0;
#X connect 92 1 95 1;
#X connect 93 0 96 0;
#X connect 93 1 96 1;
#X connect 94 0 97 0;
#X connect 94 1 97 1;
#X connect 99 0 105 0;
#X connect 99 0 155 0;
#X connect 99 0 156 0;
#X connect 99 1 129 0;
#X connect 100 0 99 0;
#X connect 101 0 102 0;
#X connect 101 0 112 0;
#X connect 101 0 116 0;
#X connect 102 0 103 0;
#X connect 103 0 101 1;
#X connect 104 0 109 1;
#X connect 105 0 106 0;
#X connect 106 0 107 0;
#X connect 107 0 104 0;
#X connect 107 0 108 0;
#X connect 107 1 108 1;
#X connect 107 1 104 1;
#X connect 107 1 109 3;
#X connect 108 0 109 2;
#X connect 109 0 87 0;
#X connect 110 0 111 0;
#X connect 111 0 91 1;
#X connect 111 0 92 1;
#X connect 111 0 93 1;
#X connect 111 0 94 1;
#X connect 111 0 113 0;
#X connect 112 0 110 0;
#X connect 114 0 131 0;
#X connect 115 0 117 1;
#X connect 116 0 117 0;
#X connect 117 0 91 2;
#X connect 117 0 92 2;
#X connect 117 0 93 2;
#X connect 117 0 94 2;
#X connect 117 0 120 0;
#X connect 119 0 76 0;
#X connect 122 0 85 0;
#X connect 124 0 20 0;
#X connect 125 0 25 0;
#X connect 127 0 138 0;
#X connect 130 0 119 1;
#X connect 131 0 115 0;
#X connect 133 0 14 1;
#X connect 134 0 49 1;
#X connect 135 0 78 0;
#X connect 136 0 135 1;
#X connect 137 0 8 0;
#X connect 140 0 51 0;
#X connect 140 0 84 0;
#X connect 143 0 44 0;
