#N canvas 1130 50 378 565 10;
#X obj 41 372 loadbang;
#X obj 102 102 cnv 15 160 225 empty empty quantizer_\$1 0 6 0 9 -204800
-66577 0;
#X obj 105 127 hradio 12 1 0 5 \$1-transpose \$0-transpose transpose
1 -8 0 10 -262144 -1 -1 2;
#X text 102 140 -2;
#X text 131 140 0;
#X text 149 140 +2;
#X obj 183 135 vradio 12 1 0 12 \$1-quality \$0-quality quality 0 -8
0 10 -262144 -1 -1 0;
#X obj 41 391 f \$0;
#X obj 105 299 hradio 12 1 0 12 \$1-root \$0-root diatonic_root 0 -8
0 10 -262144 -1 -1 0;
#X text 107 311 C;
#X text 131 311 D;
#X text 155 311 E;
#X text 167 311 F;
#X text 191 311 G;
#X text 215 311 A;
#X text 239 311 B;
#X obj 145 166 vradio 12 1 0 4 \$1-invert \$0-invert inver -24 -6 0
10 -262144 -1 -1 0;
#X text 117 164 root;
#X text 123 176 1st;
#X text 123 189 2nd;
#X text 123 203 3rd;
#X obj 145 231 vradio 12 1 0 4 \$1-voicing \$0-voicing voice -24 -6
0 10 -262144 -1 -1 0;
#X msg 41 411 \; \$1-transpose 2 \; \$1-quality 0 \; \$1-root 0 \;
\$1-invert 0 \; \$1-voicing 0 \;;
#X text 104 230 closed;
#X text 105 242 drop 2;
#X text 105 255 drop 3;
#X text 117 267 open;
#X text 200 170 minor 7th;
#X text 206 182 dominant;
#X text 200 194 major 7th;
#X text 200 147 fully dim;
#X text 206 159 half dim;
#X text 200 255 major 9th;
#X text 200 268 minor 9th;
#X text 206 134 min/maj7;
#X text 212 219 aug dom;
#X text 194 207 aug maj7th;
#X text 200 231 maj7 sus2;
#X text 200 243 min7 sus4;
#N canvas 798 113 632 468 copyrightInfo 0;
#X text 43 19 This program creates generative music on an Elektron
Digitone. Copyright (C) 2019 Jerry Z. Raski This program is free software:
you can redistribute it and/or modify it under the terms of the GNU
General Public License as published by the Free Software Foundation
\, either version 3 of the License \, or (at your option) any later
version. This program is distributed in the hope that it will be useful
\, but WITHOUT ANY WARRANTY \; without even the implied warranty of
MERCHANTABILITY or FITNESS FOR A PARTICULAR PURPOSE. See the GNU General
Public License for more details. You should have received a copy of
the GNU General Public License along with this program. If not \, see
<https://www.gnu.org/licenses/>.;
#X text 74 306 j.raski@gmail.com;
#X restore 168 450 pd copyrightInfo;
#X connect 0 0 7 0;
#X connect 7 0 22 0;
#X coords 0 -1 1 1 165 230 1 100 100;
